<svg id="Layer_2" data-name="Layer 2" xmlns="http://www.w3.org/2000/svg" viewBox="0 0 591.51 314.2"><defs><style>.cls-1{fill:#1d252c;}</style></defs><path class="cls-1" d="M175.59,355.75c-51.26,0-87.64-38.1-87.64-94.57s36.38-94.57,87.64-94.57,87.65,38.11,87.65,94.57S226.86,355.75,175.59,355.75Zm0-35c28.06,0,45.73-22.52,45.73-59.59s-17.67-59.58-45.73-59.58-45.72,22.52-45.72,59.58S147.54,320.77,175.59,320.77Z" transform="translate(-87.95 -101.49)"/><path class="cls-1" d="M364.83,101.49V351.94H320.49V179.43H260.56V146.52l24.25-2.08c31.18-2.77,44-13.51,46.42-42.95Z" transform="translate(-87.95 -101.49)"/><path class="cls-1" d="M488.2,101.49V351.94H443.86V179.43H383.93V146.52l24.25-2.08c31.18-2.77,44-13.51,46.42-42.95Z" transform="translate(-87.95 -101.49)"/><path class="cls-1" d="M540.55,415.68a111,111,0,0,1-17-1v-35a97.26,97.26,0,0,0,13.86,1c13.85,0,20.43-3.81,26.32-18.36l6.93-17L504.53,170.08h43.64l44.69,127.48,43.65-127.48h43L604.64,368.92C594.25,396.63,578.31,415.68,540.55,415.68Z" transform="translate(-87.95 -101.49)"/></svg>